<?xml version="1.0" encoding="UTF-8"?>
<svg id="Layer_1" data-name="Layer 1" xmlns="http://www.w3.org/2000/svg" viewBox="0 0 485.58 485.58">
  <path d="M242.79,485.08c-64.72,0-125.56-25.2-171.32-70.96C25.7,368.35.5,307.51.5,242.79S25.7,117.23,71.46,71.46,178.07.5,242.79.5s125.56,25.2,171.32,70.96c45.76,45.76,70.96,106.61,70.96,171.32s-25.2,125.56-70.96,171.32c-45.76,45.76-106.61,70.96-171.32,70.96Z" fill="#2b7a79"/>
  <path d="M242.79,1c32.64,0,64.31,6.39,94.11,19,28.79,12.18,54.65,29.61,76.86,51.82,22.21,22.21,39.64,48.06,51.82,76.86,12.61,29.81,19,61.47,19,94.11s-6.39,64.31-19,94.11c-12.18,28.79-29.61,54.65-51.82,76.86-22.21,22.21-48.06,39.64-76.86,51.82-29.81,12.61-61.47,19-94.11,19s-64.31-6.39-94.11-19c-28.79-12.18-54.65-29.61-76.86-51.82-22.21-22.21-39.64-48.06-51.82-76.86C7.39,307.09,1,275.43,1,242.79s6.39-64.31,19-94.11c12.18-28.79,29.61-54.65,51.82-76.86,22.21-22.21,48.06-39.64,76.86-51.82C178.48,7.39,210.15,1,242.79,1M242.79,0C108.7,0,0,108.7,0,242.79s108.7,242.79,242.79,242.79,242.79-108.7,242.79-242.79S376.88,0,242.79,0h0Z"/>
</svg>