<?xml version="1.0" encoding="UTF-8"?>
<svg xmlns="http://www.w3.org/2000/svg" viewBox="0 0 601 601">
  <g id="Layer_2" data-name="Layer 2">
    <g style="opacity: 0;">
      <rect width="601" height="601" style="fill: #0b2f3b;"/>
    </g>
  </g>
  <g id="Layer_1" data-name="Layer 1">
    <ellipse cx="297" cy="235.5" rx="15" ry="18.5" style="fill: #fff;"/>
    <path d="M290.83,252.03l-.79,11.77s-.25,8.12-8.84,8.68-9.26,1.11-9.26,1.11c0,0-7.45,1.66-7.45,10.27s-3.88,60.55-3.88,60.55c0,0,.5,20.36,5.93.38s6.18-52.84,6.18-52.84c0,0,.2-11.11,4.49.03s6.06,23.46,2.84,29.81-7.19,12.29-3.76,27.33c1.58,6.95,8.3,73.06,8.3,73.06,0,0,.11,22.01,8.02,1.63s1.7-75.45,1.7-75.45c0,0,.51-9.76,10.4,1.66,11.81,13.64,6.93,66.96,6.93,66.96,0,0,.07,37.27,9.29-.42s7.16-56.09,7.16-56.09c0,0-.56-12.55-1.1-16.4-.62-4.49-3.2-17.09-6.89-23.16-5.79-9.53-3.72-34.41-3.72-34.41,0,0,1.01-12.74,8.91,3.9s6.41,13.51,6.41,13.51c0,0,7.65,11.8.28,18.11-10.19,8.72-13.98,12.79-.97,8.08,13.43-4.86,10.74-17.36,10.03-20.61-1.24-5.67-10.63-28.81-13.37-32.87-2.29-3.39-7.8-5.83-16.02-4.81-7.18.89-8.74-1.65-8.74-1.65,0,0-1.4-1.25-1.99-6.5-.54-4.8-.42-10.27-.42-10.27l-9.64-1.34Z" style="fill: #fff;"/>
    <path d="M309.24,246.15s17.54,10.79,9.33,17.35c-8.21,6.56-12.83-4.48-12.83-4.48,0,0-1.59-.72-3.26-6.4s-5.63-9.71-5.63-9.71l12.38,3.23Z" style="fill: #fff;"/>
    <path d="M299.62,216.77s3.72-20.14,27.23-30.15l-20.02-16.53-3.26,3.26,12.8,10.94-8.84,7.68-12.1-10.47-4.66,5.59,11.87,9.08s-5.79,4.74-8.61,12.57l-15.36-9.08-3.72,6.52,17.96,7.43-.69,4.43,7.41-1.26Z" style="fill: #fff;"/>
    <path d="M190.57,419.3s8.33,1.26,10.43-9.87c0,0,.95-11.75-10.43-12.22s-26.56,3.65-27.03,22.27,25.14,20.97,25.14,20.97c0,0,41.26,4.66,46.01-21.64,0,0,3.2-71.68,4.84-208.19,0,0-3.48-50.97,39.3-52.43,42.42-1.44,52.33,0,52.33,0,0,0,37.1.58,36.56,47.59-.56,48.65-.36,213.02-.36,213.02,0,0-.65,32.92,46.45,21.56,0,0,24.93-5.75,24.86-20.91,0,0,3.69-25.72-27.68-22.25,0,0-10.25.79-10.27,12.36,0,0-.44,4.93,10.41,9.95,0,0-5.86-4.41-6.19-9.29-.52-7.57,5.97-7.57,5.97-7.57,0,0,24.34-2.14,20.9,17.9,0,0,.25,8.42-18.56,13.43,0,0-37.25,10.37-36.44-16.58.82-27.3,1.05-213.45,1.05-213.45,0,0,3.52-49.77-45.39-55.97,0,0-28.94-.97-55.15,0,0,0-48.94-.43-48.36,63.07l-3.69,206.33s1.23,17.32-35.69,16.58c0,0-19.94-.49-19.94-13.9,0,0,0-19.02,21.17-17.07,0,0,6.15,0,6.15,7.07,0,0-.33,5.33-6.38,9.2Z" style="fill: #fff;"/>
  </g>
</svg>